<?xml version="1.0" encoding="UTF-8" standalone="no"?>
<!-- Created with Inkscape (http://www.inkscape.org/) -->

<svg
   width="500mm"
   height="500mm"
   viewBox="0 0 500 500"
   version="1.1"
   id="svg1"
   sodipodi:docname="logo2.svg"
   inkscape:version="1.4.2 (f4327f4, 2025-05-13)"
   xmlns:inkscape="http://www.inkscape.org/namespaces/inkscape"
   xmlns:sodipodi="http://sodipodi.sourceforge.net/DTD/sodipodi-0.dtd"
   xmlns="http://www.w3.org/2000/svg"
   xmlns:svg="http://www.w3.org/2000/svg">
  <sodipodi:namedview
     id="namedview1"
     pagecolor="#ffffff"
     bordercolor="#000000"
     borderopacity="0.25"
     inkscape:showpageshadow="2"
     inkscape:pageopacity="0.0"
     inkscape:pagecheckerboard="0"
     inkscape:deskcolor="#d1d1d1"
     inkscape:document-units="mm"
     inkscape:zoom="0.26101992"
     inkscape:cx="1055.475"
     inkscape:cy="896.4833"
     inkscape:window-width="1440"
     inkscape:window-height="830"
     inkscape:window-x="-6"
     inkscape:window-y="-6"
     inkscape:window-maximized="1"
     inkscape:current-layer="layer1" />
  <defs
     id="defs1">
    <marker
       style="overflow:visible"
       id="marker1"
       refX="-0.50338984"
       refY="1.6123552e-08"
       orient="auto"
       inkscape:stockid="Dot"
       markerWidth="0.20136519"
       markerHeight="0.20136519"
       viewBox="0 0 1 1"
       inkscape:isstock="true"
       inkscape:collect="always"
       preserveAspectRatio="xMidYMid">
      <path
         transform="scale(0.5)"
         style="fill:context-stroke;fill-rule:evenodd;stroke:none"
         d="M 5,0 C 5,2.76 2.76,5 0,5 -2.76,5 -5,2.76 -5,0 c 0,-2.76 2.3,-5 5,-5 2.76,0 5,2.24 5,5 z"
         sodipodi:nodetypes="sssss"
         id="path1" />
    </marker>
    <marker
       style="overflow:visible"
       id="Dot"
       refX="0"
       refY="0"
       orient="auto"
       inkscape:stockid="Dot"
       markerWidth="1"
       markerHeight="1"
       viewBox="0 0 1 1"
       inkscape:isstock="true">
      <path
         transform="scale(0.5)"
         style="fill:context-stroke;fill-rule:evenodd;stroke:none"
         d="M 5,0 C 5,2.76 2.76,5 0,5 -2.76,5 -5,2.76 -5,0 c 0,-2.76 2.3,-5 5,-5 2.76,0 5,2.24 5,5 z"
         sodipodi:nodetypes="sssss"
         id="path17" />
    </marker>
    <marker
       style="overflow:visible"
       id="marker1-1-6"
       refX="-0.50338984"
       refY="1.6123552e-08"
       orient="auto"
       inkscape:stockid="Dot"
       markerWidth="0.20136519"
       markerHeight="0.20136519"
       viewBox="0 0 1 1"
       inkscape:isstock="true"
       inkscape:collect="always"
       preserveAspectRatio="xMidYMid">
      <path
         transform="scale(0.5)"
         style="fill:context-stroke;fill-rule:evenodd;stroke:none"
         d="M 5,0 C 5,2.76 2.76,5 0,5 -2.76,5 -5,2.76 -5,0 c 0,-2.76 2.3,-5 5,-5 2.76,0 5,2.24 5,5 z"
         sodipodi:nodetypes="sssss"
         id="path1-7-1" />
    </marker>
    <marker
       style="overflow:visible"
       id="marker1-1-6-8"
       refX="-0.50338984"
       refY="1.6123552e-08"
       orient="auto"
       inkscape:stockid="Dot"
       markerWidth="0.20136519"
       markerHeight="0.20136519"
       viewBox="0 0 1 1"
       inkscape:isstock="true"
       inkscape:collect="always"
       preserveAspectRatio="xMidYMid">
      <path
         transform="scale(0.5)"
         style="fill:context-stroke;fill-rule:evenodd;stroke:none"
         d="M 5,0 C 5,2.76 2.76,5 0,5 -2.76,5 -5,2.76 -5,0 c 0,-2.76 2.3,-5 5,-5 2.76,0 5,2.24 5,5 z"
         sodipodi:nodetypes="sssss"
         id="path1-7-1-5" />
    </marker>
    <marker
       style="overflow:visible"
       id="marker1-1-6-9"
       refX="-0.50338984"
       refY="1.6123552e-08"
       orient="auto"
       inkscape:stockid="Dot"
       markerWidth="0.20136519"
       markerHeight="0.20136519"
       viewBox="0 0 1 1"
       inkscape:isstock="true"
       inkscape:collect="always"
       preserveAspectRatio="xMidYMid">
      <path
         transform="scale(0.5)"
         style="fill:context-stroke;fill-rule:evenodd;stroke:none"
         d="M 5,0 C 5,2.76 2.76,5 0,5 -2.76,5 -5,2.76 -5,0 c 0,-2.76 2.3,-5 5,-5 2.76,0 5,2.24 5,5 z"
         sodipodi:nodetypes="sssss"
         id="path1-7-1-54" />
    </marker>
    <marker
       style="overflow:visible"
       id="marker1-1-6-8-1"
       refX="-0.50338984"
       refY="1.6123552e-08"
       orient="auto"
       inkscape:stockid="Dot"
       markerWidth="0.20136519"
       markerHeight="0.20136519"
       viewBox="0 0 1 1"
       inkscape:isstock="true"
       inkscape:collect="always"
       preserveAspectRatio="xMidYMid">
      <path
         transform="scale(0.5)"
         style="fill:context-stroke;fill-rule:evenodd;stroke:none"
         d="M 5,0 C 5,2.76 2.76,5 0,5 -2.76,5 -5,2.76 -5,0 c 0,-2.76 2.3,-5 5,-5 2.76,0 5,2.24 5,5 z"
         sodipodi:nodetypes="sssss"
         id="path1-7-1-5-3" />
    </marker>
  </defs>
  <g
     inkscape:label="图层 1"
     inkscape:groupmode="layer"
     id="layer1">
    <path
       style="fill:none;fill-opacity:1;stroke:#8a30e2;stroke-width:40.494;stroke-dasharray:none;stroke-opacity:1;marker-start:url(#marker1);marker-end:url(#marker1)"
       id="path2"
       sodipodi:type="arc"
       sodipodi:cx="249.58372"
       sodipodi:cy="242.55798"
       sodipodi:rx="209.40233"
       sodipodi:ry="213.31595"
       sodipodi:start="0"
       sodipodi:end="4.2944544"
       sodipodi:open="true"
       sodipodi:arc-type="arc"
       d="M 458.98605,242.55798 A 209.40233,213.31595 0 0 1 278.66161,453.80729 209.40233,213.31595 0 0 1 48.256986,301.22671 209.40233,213.31595 0 0 1 164.59283,47.602312" />
    <path
       style="fill:none;fill-opacity:1;stroke:#7fff6b;stroke-width:32.78700764;stroke-dasharray:none;stroke-opacity:1;marker-start:url(#marker1-1-6);marker-end:url(#marker1-1-6)"
       id="path3-2"
       sodipodi:type="arc"
       sodipodi:cx="245.21855"
       sodipodi:cy="250.25746"
       sodipodi:rx="145.87657"
       sodipodi:ry="144.56248"
       sodipodi:start="2.0414945"
       sodipodi:end="5.1961489"
       sodipodi:open="true"
       sodipodi:arc-type="arc"
       d="M 179.06227,379.09905 A 145.87657,144.56248 0 0 1 99.513846,257.27273 145.87657,144.56248 0 0 1 166.7703,128.37818 145.87657,144.56248 0 0 1 313.06734,122.28317"
       transform="matrix(0.99958263,-0.02888892,0.02792382,0.99961005,0,0)" />
    <path
       style="fill:none;fill-opacity:1;stroke:#7fff6b;stroke-width:22.60800527;stroke-dasharray:none;stroke-opacity:1;marker-start:url(#marker1-1-6-9);marker-end:url(#marker1-1-6-9)"
       id="path3-2-3"
       sodipodi:type="arc"
       sodipodi:cx="242.88116"
       sodipodi:cy="254.66711"
       sodipodi:rx="59.885368"
       sodipodi:ry="59.345909"
       sodipodi:start="2.0414945"
       sodipodi:end="0.36838958"
       sodipodi:open="true"
       sodipodi:arc-type="arc"
       d="m 215.72263,307.55927 a 59.885368,59.345909 0 0 1 -27.10938,-77.98697 59.885368,59.345909 0 0 1 77.72578,-29.50862 59.885368,59.345909 0 0 1 32.4097,75.9747"
       transform="matrix(0.99958263,-0.02888892,0.02792382,0.99961005,0,0)" />
    <path
       style="fill:none;fill-opacity:1;stroke:#8a2be2;stroke-width:33.40404873;stroke-dasharray:none;stroke-opacity:1;marker-start:url(#marker1-1-6-8);marker-end:url(#marker1-1-6-8)"
       id="path3-2-9"
       sodipodi:type="arc"
       sodipodi:cx="-233.84534"
       sodipodi:cy="-262.24515"
       sodipodi:rx="98.536453"
       sodipodi:ry="97.635155"
       sodipodi:start="0.92723674"
       sodipodi:end="5.1961489"
       sodipodi:open="true"
       sodipodi:arc-type="arc"
       d="m -174.71886,-184.14045 a 98.536453,97.635155 0 0 1 -128.38387,-8.65412 98.536453,97.635155 0 0 1 -10.27063,-127.09683 98.536453,97.635155 0 0 1 125.3584,-28.7855"
       transform="matrix(-0.99762344,0.06890186,-0.0664923,-0.99778694,0,0)" />
    <path
       style="fill:none;fill-opacity:1;stroke:#8a2be2;stroke-width:13.3163;stroke-dasharray:none;stroke-opacity:1;marker-start:url(#marker1-1-6-8-1);marker-end:url(#marker1-1-6-8-1)"
       id="path3-2-9-7"
       sodipodi:type="arc"
       sodipodi:cx="-354.6312"
       sodipodi:cy="28.911123"
       sodipodi:rx="30.205034"
       sodipodi:ry="29.309698"
       sodipodi:start="0.92723674"
       sodipodi:end="5.1961489"
       sodipodi:open="true"
       sodipodi:arc-type="arc"
       d="m -336.50676,52.357853 a 30.205034,29.309698 0 0 1 -39.35437,-2.597934 30.205034,29.309698 0 0 1 -3.14832,-38.153979 30.205034,29.309698 0 0 1 38.42695,-8.6412974"
       transform="matrix(-0.64955923,-0.76031099,0.74821455,-0.66345684,0,0)" />
  </g>
</svg>
